<svg width="20px" height="19px" viewBox="0 0 16 18">
    <g transform="translate(-253.000000, -54.000000)">
        <path d="M261,72 C262.04,72 262.882353,71.1945 262.882353,70.2 L259.117647,70.2 C259.117647,71.1945 259.96,72 261,72 Z M266.976668,66.0590357 L266.976668,61.65 C266.976668,58.8825 265.108235,56.574 262.411765,55.962 L262.411765,55.0911483 C262.411765,54.3441483 261.781176,54 261,54 C260.218824,54 259.588235,54.3441483 259.588235,55.0911483 L259.588235,55.962 C256.891765,56.574 254.98235,58.8825 254.98235,61.65 L254.98235,66.0590357 L253,67.0215302 L253,68.9750312 L269,68.9750312 L269,67.0215302 L266.976668,66.0590357 Z M265.056143,67.0382342 L256.940315,67.0382342 L256.940315,61.65 C256.940315,59.4135 258.661176,57.6 261,57.6 C263.338824,57.6 265.056143,59.4135 265.056143,61.65 L265.056143,67.0382342 Z"></path>
    </g>
</svg>
