<svg xmlns="http://www.w3.org/2000/svg" fill="none" viewBox="0 0 24 24"><path stroke="currentColor" stroke-linecap="round" stroke-linejoin="round" stroke-width="2" d="M12 15a3 3 0 1 0 0-6 3 3 0 0 0 0 6Z"/><path stroke="currentColor" stroke-linecap="round" stroke-linejoin="round" stroke-width="2" d="M19.4 15a1.7 1.7 0 0 0 .3 1.8h0a2 2 0 1 1-2.7 3l-.1-.2a1.7 1.7 0 0 0-1.8-.3 1.7 1.7 0 0 0-1 1.5v.2a2 2 0 0 1-4 0v0A1.6 1.6 0 0 0 9 19.3a1.7 1.7 0 0 0-1.8.3h0a2 2 0 1 1-3-2.7l.1-.1a1.6 1.6 0 0 0 .4-1.8 1.6 1.6 0 0 0-1.5-1H3a2 2 0 1 1 0-4h0A1.6 1.6 0 0 0 4.7 9a1.6 1.6 0 0 0-.3-1.8h0a2 2 0 1 1 2.7-3l.1.1a1.6 1.6 0 0 0 1.8.4H9a1.6 1.6 0 0 0 1-1.5V3a2 2 0 1 1 4 0v0a1.6 1.6 0 0 0 1 1.6 1.6 1.6 0 0 0 1.8-.3h0a2 2 0 1 1 3 2.7l-.2.1a1.7 1.7 0 0 0-.3 1.8V9a1.7 1.7 0 0 0 1.5 1h.2a2 2 0 0 1 0 4h0a1.7 1.7 0 0 0-1.6 1v0Z"/></svg>