<?xml version="1.0" encoding="UTF-8" standalone="no"?>
<svg
   xmlns:dc="http://purl.org/dc/elements/1.1/"
   xmlns:cc="http://creativecommons.org/ns#"
   xmlns:rdf="http://www.w3.org/1999/02/22-rdf-syntax-ns#"
   xmlns:svg="http://www.w3.org/2000/svg"
   xmlns="http://www.w3.org/2000/svg"
   id="svg4811"
   version="1.1"
   viewBox="-0.018 0 38.311 38.312">
  <defs
     id="defs4805" />
  <metadata
     id="metadata4808">
    <rdf:RDF>
      <cc:Work
         rdf:about="">
        <dc:format>image/svg+xml</dc:format>
        <dc:type
           rdf:resource="http://purl.org/dc/dcmitype/StillImage" />
        <dc:title></dc:title>
      </cc:Work>
    </rdf:RDF>
  </metadata>
  <g
     id="layer1">
    <path
       style="stroke-width:0.26458332;fill:#001935;fill-opacity:1"
       id="path3914"
       d="M 30.646713,-0.03479131 H 7.6279639 c -4.206875,0 -7.646459,3.43958001 -7.646459,7.64645001 V 30.630409 c 0,4.20688 3.439584,7.64646 7.646459,7.64646 H 30.646713 c 4.206875,0 7.646459,-3.43958 7.646459,-7.64646 V 7.6116587 c 0,-4.20687 -3.439584,-7.64645001 -7.646459,-7.64645001 z"
       class="st1" />
    <path
       style="fill:#ffffff;fill-opacity:1;stroke:#ffffff;stroke-width:0.26499999;stroke-miterlimit:4;stroke-dasharray:none;stroke-opacity:1"
       id="path3916"
       d="m 25.920543,30.591399 h -4.048125 c -3.624791,0 -6.35,-1.87854 -6.35,-6.35 v -7.17021 h -3.307291 v -3.88938 c 3.624791,-0.9525 5.159375,-4.0745796 5.344583,-6.7733296 h 3.783542 v 6.1647896 h 4.392083 v 4.49792 h -4.392083 v 6.24417 c 0,1.87854 0.9525,2.51354 2.434166,2.51354 h 2.143125 z"
       class="st0" />
  </g>
</svg>
