<svg xmlns="http://www.w3.org/2000/svg" data-name="Layer 1" viewBox="0 0 352.8 339.8"><defs><linearGradient id="a" x1="148" x2="100" y1="445.4" y2="904.5" gradientUnits="userSpaceOnUse"><stop offset="0" stop-color="#ed1c24"/><stop offset="1" stop-color="#be1e2d"/></linearGradient></defs><path fill="url(#a)" d="M281.5 240.2a196.7 196.7 0 0 1-36.8 17.3c-12.1 5-27 8.7-43.5 10.8-6.3 1-12.8 2-19.4 2.6h-.2c-61 5.3-113-7.9-142.8-35.9l-.8-.7-.1 3.3a51.8 51.8 0 0 0 13 33.9c24.2 27.7 70.7 42.9 124.7 43.7 36 .2 68.9-6.5 94-18.6 12.6-6.2 23.3-13.6 31.5-23s13.6-20.9 13.7-33.6a48.8 48.8 0 0 0-5.5-22.6 123.6 123.6 0 0 1-27.8 22.8Zm-106.3-38.3c-57 4.3-106.1-6.3-136.6-30.6a53 53 0 0 0 13 30.7c24.1 27.8 70.6 42.8 124.7 43.7 36 .2 68.8-6.5 94-18.7 12.5-6 23.3-13.5 31.4-22.9s13.6-20.9 13.6-33.7a49.4 49.4 0 0 0-8.2-27.3c-8 10.4-41.6 51.9-132 58.8Zm1.6-25.7c36 .2 68.9-6.5 94-18.7a97.9 97.9 0 0 0 31.5-22.9c8.1-9.2 13.6-20.9 13.6-33.6s-5-24.5-13-34c-24.2-27.7-70.7-42.7-124.7-43.6-36-.3-68.9 6.5-94 18.6-12.6 6.2-23.4 13.6-31.5 22.9S39 85.9 39 98.6s5.2 24.5 13.1 33.9c24.1 27.7 70.7 42.8 124.7 43.7ZM71.6 71.3c13.1-16 54-31.6 101.7-30.8 31.9.2 60.5 7 79.8 16.9 9.8 4.8 17 10.4 21.4 15.6s5.8 9.6 5.8 13.6-1.6 8.3-6 13.6c-13.1 16-54 31.6-101.7 30.8-32-.2-60.6-7-79.9-16.9a67.7 67.7 0 0 1-21.3-15.6c-4.3-5.4-5.8-9.7-5.8-13.7s1.5-8.3 6-13.5Z"/></svg>