<svg xmlns="http://www.w3.org/2000/svg" xml:space="preserve" viewBox="0 0 25.6 30.2"><path fill="#253b80" d="m7.3 29.2.5-3.4H1L4.9 1.3 5 1h9.6C17.7 1 20 1.6 21 3c.5.6.9 1.2 1 1.9a7 7 0 0 1 0 2.6v.8l.5.3c.5.2.8.5 1.1.8.5.5.8 1.1.9 2 .1.7 0 1.7-.1 2.7a9.9 9.9 0 0 1-1.2 3.2 6.5 6.5 0 0 1-4.3 3.1c-.9.3-2 .4-3 .4H15a2.2 2.2 0 0 0-2.2 1.8v.3l-1 5.9V29H7.3z"/><path fill="#179bd7" d="M23 7.7v.5c-1.3 6.4-5.5 8.6-11 8.6H9.4c-.6 0-1.2.4-1.3 1l-1.4 9-.4 2.6c0 .4.3.8.7.8h4.9c.6 0 1-.4 1.1-1v-.3l1-5.8v-.3c.1-.6.6-1 1.2-1h.7c4.8 0 8.5-2 9.6-7.5.4-2.3.2-4.2-1-5.6-.4-.4-.8-.8-1.4-1z"/><path fill="#222d65" d="M21.8 7.2a9.8 9.8 0 0 0-1.2-.3L18 6.7h-7.3a1.2 1.2 0 0 0-1.2 1L8 17.7v.2c.1-.7.7-1.1 1.3-1.1h2.8c5.4 0 9.6-2.2 10.9-8.6v-.5a6.6 6.6 0 0 0-1.2-.5z"/><path fill="#253b80" d="M9.6 7.7a1.2 1.2 0 0 1 1.2-1H18a15.3 15.3 0 0 1 4 .5l1 .5c.3-2.4 0-4-1.3-5.4C20.4.7 17.8 0 14.6 0H5.2C4.6 0 4 .5 4 1.1L0 26c0 .5.3 1 .8 1h5.8L8 17.5l1.6-9.9z"/></svg>