<svg xmlns="http://www.w3.org/2000/svg" fill="#6772e5" viewBox="0 0 32 32"><path fill-rule="evenodd" d="M111.3 15.6c0-5-2.4-8.9-7-8.9s-7.4 4-7.4 8.9c0 5.8 3.3 8.8 8 8.8 2.3 0 4-.6 5.4-1.3v-3.9a10.2 10.2 0 0 1-4.8 1c-1.9 0-3.5-.6-3.7-2.8h9.5a39.6 39.6 0 0 0 0-1.8zm-9.6-1.8c0-2.2 1.4-3.1 2.6-3.1s2.4.9 2.4 3zm-12.3-7a5.4 5.4 0 0 0-3.8 1.4L85.3 7h-4.2v22.7l4.8-1V23a5.4 5.4 0 0 0 3.5 1.3c3.4 0 6.6-2.8 6.6-9 0-5.6-3.2-8.7-6.6-8.7zM88.2 20a2.9 2.9 0 0 1-2.3-1V12a3 3 0 0 1 2.3-1c1.8 0 3 2 3 4.6 0 2.6-1.2 4.5-3 4.5zM79.2.6l-4.8 1v4l4.8-1z"/><path d="M74.4 7h4.8v17h-4.8z"/><path fill-rule="evenodd" d="M69.2 8.5 68.9 7h-4.2v17h4.8V12.5c1.2-1.5 3.1-1.2 3.7-1V7c-.6-.2-2.9-.6-4 1.5zm-9.8-5.7-4.7 1v15.6c0 2.9 2.1 5 5 5 1.6 0 2.8-.3 3.4-.7v-4c-.6.3-3.7 1.2-3.7-1.6v-7h3.7v-4h-3.7zM46.3 12c0-.8.6-1 1.6-1a10.9 10.9 0 0 1 4.9 1.2V7.6a12.8 12.8 0 0 0-4.9-.9c-3.9 0-6.5 2-6.5 5.5 0 5.4 7.4 4.5 7.4 6.8 0 1-.8 1.2-1.9 1.2-1.6 0-3.7-.7-5.3-1.6v4.7a13.5 13.5 0 0 0 5.3 1.1c4 0 6.8-2 6.8-5.5 0-5.8-7.4-4.7-7.4-7zM13.9 9.5c0-1.4 1.1-1.9 3-1.9a19.7 19.7 0 0 1 8.7 2.3V1.6A23.2 23.2 0 0 0 16.9 0C9.8 0 5 3.7 5 10c0 9.6 13.3 8 13.3 12.3 0 1.6-1.4 2.1-3.3 2.1-3 0-6.7-1.2-9.6-2.8V30a24.4 24.4 0 0 0 9.6 2c7.3 0 12.3-3.6 12.3-10 0-10.4-13.4-8.5-13.4-12.5z"/></svg>