<svg aria-hidden="true" style="position: absolute; width: 0; height: 0; overflow: hidden;" version="1.1" xmlns="http://www.w3.org/2000/svg" xmlns:xlink="http://www.w3.org/1999/xlink">
<defs>
<symbol id="wpbdp-heart-solid-icon" viewBox="0 0 20 20">
<path d="M10 19.4L8.6 18C3.4 13.4 0 10.3 0 6.5 0 3.5 2.4 1 5.5 1A6 6 0 0 1 10 3a6 6 0 0 1 4.5-2c3 0 5.5 2.4 5.5 5.5 0 3.8-3.4 6.9-8.6 11.5L10 19.3z"/>
</symbol>
</defs>
<symbol id="wpbdp-step1-icon" viewBox="0 0 100 100">
<circle cx="50" cy="50" r="50" fill="#ccc"/><path data-name="1" d="M47.48 67.35v-22.7h-8.8V39.3a16.779 16.779 0 003.57-.27 9.344 9.344 0 003.1-1.15 7.565 7.565 0 002.33-2.18 7.737 7.737 0 001.25-3.35h5.65v35h-7.1z" fill="#fff" fill-rule="evenodd"/>
</symbol>
<symbol id="wpbdp-step2-icon" viewBox="0 0 100 100">
<circle cx="50" cy="50" r="50" fill="#ccc"/><path data-name="2" d="M38.53 41.23a12.807 12.807 0 012.4-4.5 10.792 10.792 0 014.02-3 13.616 13.616 0 015.58-1.08 13.905 13.905 0 014.57.75 11.871 11.871 0 013.83 2.15A10.329 10.329 0 0161.55 39a10.589 10.589 0 01.98 4.6 11 11 0 01-.85 4.55 12.168 12.168 0 01-2.25 3.38 18.894 18.894 0 01-3.18 2.67c-1.18.8-2.37 1.59-3.57 2.38s-2.37 1.62-3.5 2.52a16.035 16.035 0 00-3 3.15h16.55v6.1h-25.7a14.681 14.681 0 01.87-5.3 14.2 14.2 0 012.38-4.02 20.5 20.5 0 013.52-3.28c1.35-1 2.78-2.01 4.28-3.05.77-.53 1.58-1.07 2.45-1.62a15.537 15.537 0 002.37-1.83A9.286 9.286 0 0054.7 47a5.5 5.5 0 00.73-2.85 5.006 5.006 0 00-5.25-5.4 4.569 4.569 0 00-2.63.73 5.345 5.345 0 00-1.72 1.9 9.023 9.023 0 00-.93 2.6 15.122 15.122 0 00-.27 2.82h-6.8a16.741 16.741 0 01.7-5.57z" fill="#fff" fill-rule="evenodd"/>
</symbol>
<symbol id="wpbdp-step-complete-icon" viewBox="0 0 56.18 56.18">
<circle cx="28.09" cy="28.09" r="25" fill="#6fb05a" stroke="#6ab255" stroke-width="6"/><path d="M36.93 19.88L24.09 32.72 19.37 28a.6.6 0 00-.83 0l-1.38 1.39a.573.573 0 000 .82l6.52 6.52a.573.573 0 00.82 0l14.64-14.64a.585.585 0 000-.83l-1.38-1.38a.585.585 0 00-.83 0z" fill="#fff" fill-rule="evenodd"/>
</symbol>
</svg>