<svg version="1.1" id="BusinessDirectoryPlugin_-_Present" xmlns="http://www.w3.org/2000/svg" x="0" y="0" viewBox="0 0 612 792" xml:space="preserve"><style>.st0,.st1,.st2,.st3,.st4,.st5,.st6{fill-rule:evenodd;clip-rule:evenodd;fill:#3f4b5b}.st1,.st2,.st3,.st4,.st5,.st6{fill:#566982}.st2,.st3,.st4,.st5,.st6{fill:#eef3f8}.st3,.st4,.st5,.st6{fill:#fff}.st4,.st5,.st6{fill:#ff822e}.st5,.st6{fill:#ffae5c}.st6{fill:#cf5a0c}.st8{fill:#353d47}</style><g id="Arms_1_"><path id="Left_2_" class="st0" d="M324 511c-22 63-115 127-164 121-16-2-12-17-3-28 38-41 56-86 87-125 23-31 96-16 80 32z"/><path id="Right_2_" class="st0" d="M401 526c65 14 168-33 188-79 6-14-9-19-22-16-55 11-103 4-153 10-38 4-63 74-13 85z"/></g><g id="Body_1_"><path class="st0" d="M266 461c-45 34-65 152-45 235 5 20 10 26 40 29 54 5 164-9 215-27 28-10 32-17 32-37-1-86-50-195-102-217-24-10-119 1-140 17z"/><path class="st0" d="M277 475c-33 26-44 103-45 141-1 25 1 52 7 76 2 12 2 13 24 15 51 5 159-9 207-26 21-7 20-8 20-20-1-52-20-114-48-157-9-16-25-36-43-44-17-7-107 4-122 15z"/><path class="st1" d="M277 475c-33 26-44 103-45 141-1 25 1 52 7 76 2 12 2 13 24 15 26 2 65 0 105-5l-31-241c-26 3-52 9-60 14z"/><g><path class="st2" d="M258 619c3 16 2 16 20 18 20 2 51 1 81-3s60-10 79-17c17-7 16-7 15-23-7-40-34-116-68-133-7-3-27-3-48 0-20 2-40 7-46 12-29 25-36 105-33 146z"/><path class="st3" d="M258 619c3 16 2 16 20 18 20 2 51 1 81-3l-22-173c-20 2-40 7-46 12-29 25-36 105-33 146z"/></g></g><g id="Feet"><g id="Feet_-_Left_3_"><path class="st4" d="M276 737h-80c-4 0-8-1-10-5-2-2-3-6-2-10 7-25 30-39 56-41 16-2 27 2 35 12 13 16 17 44 1 44z"/><path class="st5" d="M255 691c-8 7-18 24-18 36h-40l-2-2c8-24 34-35 60-34z"/></g><g id="Feet_-_Right_3_"><path class="st4" d="M472 711l75-30c3-2 6-4 7-8s0-8-2-11c-16-20-43-24-67-17-16 5-25 13-29 25-5 19 1 47 16 41z"/><path class="st5" d="M475 661c10 3 25 15 30 26l37-15 1-2c-16-20-46-21-68-9z"/><path class="st6" d="M502 676c25-10 48-12 51-5 3 8-14 22-40 32-25 11-48 13-51 5-3-7 15-22 40-32z"/></g></g><g id="Head_4_"><g id="Head_3_"><path class="st0" d="M103 201c-29 21-37 146 0 240 8 21 27 44 73 45 88 1 241-31 322-67 42-19 50-47 49-71-3-100-60-212-95-220-89-20-276 19-349 73z"/><path class="st0" d="M454 157c41 40 68 138 70 192 1 25-13 39-35 49-79 35-227 66-313 65-24-1-43-8-52-31-20-51-34-150-13-204 4-9 8-10 15-15 71-44 226-77 309-64 9 1 13 1 19 8z"/><path class="st1" d="M112 228c-22 53-8 153 12 204 10 23 28 30 52 31 43 0 102-7 159-19l-59-285c-58 12-114 32-150 54-7 5-11 6-14 15z"/><g><path class="st2" d="M335 444c-43 9-87 15-124 18-31 2-54-13-65-41-14-38-23-104-21-141 4-74 125-105 167-45 15-71 138-91 171-25 16 33 35 97 36 137 1 31-14 53-43 64-35 12-78 24-121 33z"/><path class="st3" d="M292 235l43 209c-43 9-87 15-124 18-31 2-54-13-65-41-14-38-23-104-21-141 4-74 125-105 167-45z"/></g></g><g id="Eyes_2_"><path id="Eyes_7_" d="M412 278a27 27 0 1032 20l-1-2-24 5 17-17c-6-6-15-8-24-6zm-171 35a27 27 0 1011 52c14-3 23-17 20-31v-2l-24 5 16-18c-6-5-14-8-23-6z" fill-rule="evenodd" clip-rule="evenodd" fill="#353d47"/><g id="Eyeglasses_3_"><path class="st8" d="M22 311c0-6 8-9 23-15a733 733 0 01184-41c19-2 32 1 47 15 5-3 16-7 21-8l7 9 6 24-4 8c-4 1-11 3-13 7 7 38 5 81-19 101-42 35-156 49-187 18-15-15-26-33-34-53 0-2-20-12-23-20-4-9-9-34-8-45zm84 108c26 18 120 11 157-20 20-17 19-54 12-87-3-14-21-34-40-32a605 605 0 00-169 37c-10 4-7 16-4 27 6 23 24 61 44 75z"/><path class="st8" d="M570 197c-3-5-12-4-28-4a727 727 0 00-184 35c-19 6-29 14-38 33h-23l-3 12 5 24 7 6c4-1 11-1 14 1 9 38 28 76 58 85 53 15 162-17 178-58 8-20 11-40 11-61 0-2 13-19 13-29 0-9-6-34-10-44zm-35 133c-16 27-105 58-152 44-25-8-38-42-45-75-3-14 6-39 23-45a600 600 0 01170-34c11 0 13 12 14 24 4 23 4 65-10 86z"/></g></g><g id="Beak_1_"><path class="st4" d="M298 406l16-31c2-6 9-7 13-3l27 22-56 12z"/><path class="st5" d="M321 374l5 26-22 4 14-26 3-4z"/><path class="st6" d="M290 410l32 20c3 2 7 3 11 2 3-1 7-3 9-6l21-31c2-4 0-7-4-6l-34 7-34 7c-4 1-4 5-1 7z"/><path class="st4" d="M333 432c-4 1-8 0-12-2l-31-20c-3-2-3-6 1-7l34-7 8 36z"/></g><g id="Hair_1_"><path class="st0" d="M324 133c3-26-4-51-16-64-16 34-41 65-71 88 26-6 50-11 77-15 8-1 10-6 10-9z"/><path class="st1" d="M302 100l7-11c5 12 7 25 6 40-1 4-2 2-2 1-2-11-5-18-11-30z"/><g><path class="st0" d="M282 187c21-39 5-106-27-131-20 62-43 81-70 108-2 2 0 8 4 8 43-5 72-2 93 15z"/><path class="st1" d="M254 90l6-14c13 17 20 41 21 63 1 2 0 4-1 1-5-18-13-34-26-50z"/></g></g></g></svg>