<svg width="35" height="35" xmlns="http://www.w3.org/2000/svg" fill="none" viewBox="0 0 35 35"><mask id="a" width="35" height="35" x="0" y="0" maskUnits="userSpaceOnUse" style="mask-type:alpha"><circle cx="17.5" cy="17.5" r="17.5" fill="#C4C4C4"/></mask><g mask="url(#a)"><circle cx="17.5" cy="17.5" r="17.5" fill="#fff"/><path fill="#3F4B5B" fill-rule="evenodd" d="M17.7 26.4c-1.2 3.6-6.3 7.1-9 6.8-1-.1-.7-1-.2-1.5 2-2.3 3.1-4.9 4.8-7 1.3-1.8 5.3-1 4.4 1.7ZM22 27.3c3.6.7 9.3-1.9 10.4-4.4.4-.8-.4-1.1-1.2-1-3 .7-5.7.3-8.4.6-2.2.2-3.5 4.2-.8 4.8Z" clip-rule="evenodd"/><path fill="#3F4B5B" fill-rule="evenodd" d="M14.6 23.6c-2.5 2-3.7 8.5-2.6 13.2.3 1.1.6 1.4 2.3 1.6 3 .3 9-.5 11.9-1.5 1.6-.6 1.8-1 1.8-2.1-.1-4.8-2.8-10.9-5.7-12.1-1.3-.6-6.6 0-7.7 1Z" clip-rule="evenodd"/><path fill="#3F4B5B" fill-rule="evenodd" d="M15.2 24.4c-1.9 1.5-2.5 5.8-2.6 8 0 1.3.1 2.8.4 4.2.2.6.2.7 1.4.8 2.8.2 8.8-.5 11.4-1.5 1.2-.4 1.2-.4 1.2-1 0-3-1.2-6.4-2.7-8.9-.5-.8-1.4-2-2.4-2.4-1-.4-5.9.2-6.7.8Z" clip-rule="evenodd"/><path fill="#556981" fill-rule="evenodd" d="M15.2 24.4c-1.9 1.5-2.5 5.8-2.6 8 0 1.3.1 2.8.4 4.2.2.6.2.7 1.4.8 1.4.1 3.6 0 5.8-.3l-1.7-13.5c-1.5.2-3 .5-3.3.8Z" clip-rule="evenodd"/><path fill="#ECF1F5" fill-rule="evenodd" d="M14 32.4c.3 1 .2 1 1.2 1 1.1.2 2.8.1 4.5 0 1.7-.3 3.3-.6 4.4-1 1-.4.9-.4.8-1.3-.4-2.3-1.9-6.5-3.8-7.5h-2.6c-1.1.2-2.3.4-2.6.7-1.6 1.4-2 5.9-1.8 8.1Z" clip-rule="evenodd"/><path fill="#fff" fill-rule="evenodd" d="M14 32.4c.3 1 .2 1 1.2 1 1.1.2 2.8.1 4.5 0l-1.2-9.8c-1.1.2-2.3.4-2.6.7-1.6 1.4-2 5.9-1.8 8.1Z" clip-rule="evenodd"/><path fill="#FC802E" fill-rule="evenodd" d="M26 37.6 30 36a.7.7 0 0 0 .3-1c-.9-1.2-2.4-1.4-3.7-1-.9.3-1.4.8-1.6 1.4-.3 1.1 0 2.7.9 2.3Z" clip-rule="evenodd"/><path fill="#FDAC5C" fill-rule="evenodd" d="M26.1 34.8c.6.2 1.4.9 1.7 1.5l2-.9c.1 0 .1 0 0 0-.8-1.2-2.4-1.2-3.7-.6Z" clip-rule="evenodd"/><path fill="#CD5A0C" fill-rule="evenodd" d="M27.6 35.7c1.4-.6 2.7-.7 2.9-.3.1.4-.8 1.2-2.3 1.8-1.3.6-2.6.7-2.8.3-.2-.4.8-1.3 2.2-1.8Z" clip-rule="evenodd"/><path fill="#3F4B5B" fill-rule="evenodd" d="M5.5 9.1c-1.6 1.2-2 8.2 0 13.4C6 23.7 7 25 9.5 25c5 0 13.4-1.7 18-3.7 2.2-1 2.7-2.6 2.6-4C30 11.7 26.8 5.5 24.8 5 20 4 9.5 6 5.5 9.1Z" clip-rule="evenodd"/><path fill="#3F4B5B" fill-rule="evenodd" d="M25 6.6c2.2 2.3 3.7 7.7 3.8 10.8 0 1.4-.7 2.2-2 2.7a51 51 0 0 1-17.3 3.6c-1.3 0-2.3-.4-2.8-1.7A19.5 19.5 0 0 1 6 10.6c.2-.5.4-.6.8-.8a31.8 31.8 0 0 1 17-3.6c.6 0 .8 0 1.2.4Z" clip-rule="evenodd"/><path fill="#556981" fill-rule="evenodd" d="M6 10.6c-1.2 3-.4 8.6.7 11.4.5 1.3 1.5 1.7 2.9 1.7 2.3 0 5.6-.4 8.8-1L15 6.7a27 27 0 0 0-8.3 3c-.4.3-.6.4-.8.9Z" clip-rule="evenodd"/><path fill="#ECF1F5" fill-rule="evenodd" d="M18.4 22.7c-2.4.5-4.8.8-7 1-1.6 0-2.9-.7-3.5-2.3-.8-2.1-1.3-5.8-1.2-7.9.2-4.1 7-5.8 9.3-2.5.8-4 7.6-5 9.5-1.4.9 1.9 1.9 5.4 2 7.7 0 1.7-.8 3-2.4 3.5-2 .7-4.3 1.4-6.7 1.9Z" clip-rule="evenodd"/><path fill="#fff" fill-rule="evenodd" d="m16 11 2.4 11.7a51 51 0 0 1-7 1c-1.6 0-2.9-.7-3.5-2.3-.8-2.1-1.3-5.8-1.2-7.9.2-4.1 7-5.8 9.3-2.5Z" clip-rule="evenodd"/><path fill="#343D47" fill-rule="evenodd" d="M22.7 13.4a1.5 1.5 0 0 0 .6 3c.8-.3 1.3-1 1.1-1.9l-1.4.2 1-1c-.4-.3-.9-.4-1.3-.3Zm-9.6 2a1.5 1.5 0 0 0 .6 2.9c.8-.2 1.4-1 1.2-1.8l-1.4.2 1-1c-.4-.3-.9-.4-1.4-.3Z" clip-rule="evenodd"/><path fill="#343D47" d="M1 15.3c0-.4.5-.5 1.3-.9a40.3 40.3 0 0 1 10.2-2.3 3 3 0 0 1 2.6.9l1.2-.5.4.5.3 1.4-.2.4c-.3 0-.6.2-.7.4.3 2.1.2 4.5-1.1 5.6-2.4 2-8.7 2.8-10.4 1A8.3 8.3 0 0 1 2.8 19c0-.1-1.2-.7-1.4-1.1-.2-.6-.4-2-.4-2.5Zm4.7 6c1.4 1 6.6.6 8.7-1.2 1-.9 1-3 .6-4.8-.1-.8-1.1-1.9-2.1-1.8a33.7 33.7 0 0 0-9.4 2c-.6.3-.4 1-.2 1.6.3 1.3 1.2 3.4 2.4 4.2Z"/><path fill="#343D47" d="M31.4 8.9c-.2-.3-.7-.3-1.5-.2a40 40 0 0 0-10.3 2 3 3 0 0 0-2 1.7h-1.3l-.2.7.3 1.4.3.3h.8c.5 2.2 1.6 4.3 3.2 4.8 3 .9 9-1 10-3.2.4-1.1.5-2.3.5-3.5 0 0 .8-1 .7-1.5 0-.6-.3-2-.5-2.5Zm-2 7.4c-.8 1.5-5.8 3.2-8.3 2.5-1.4-.5-2.2-2.4-2.6-4.2-.1-.8.3-2.2 1.3-2.6a33 33 0 0 1 9.5-1.8c.6 0 .6.6.7 1.3.2 1.3.2 3.6-.5 4.8Z"/><path fill="#FC802E" fill-rule="evenodd" d="m16.3 20.5.9-1.7c.1-.3.5-.4.7-.1l1.5 1.2-3.1.6Z" clip-rule="evenodd"/><path fill="#FDAC5C" fill-rule="evenodd" d="m17.6 18.8.3 1.4-1.2.3.7-1.5.2-.2Z" clip-rule="evenodd"/><path fill="#CD5A0C" fill-rule="evenodd" d="m15.9 20.8 1.7 1.1c.2.1.4.2.6.1l.6-.3 1.1-1.7c.1-.2 0-.5-.2-.4l-1.9.4-1.9.4c-.2 0-.2.3 0 .4Z" clip-rule="evenodd"/><path fill="#FC802E" fill-rule="evenodd" d="M18.2 22h-.6L16 20.7c-.2-.1-.2-.4 0-.4l2-.4.3 2Z" clip-rule="evenodd"/><path fill="#3F4B5B" fill-rule="evenodd" d="M17.8 5.3c.1-1.4-.3-2.9-.9-3.6-1 1.9-2.3 3.7-4 5 1.4-.4 2.8-.7 4.3-.9.4 0 .6-.3.6-.5Z" clip-rule="evenodd"/><path fill="#556981" fill-rule="evenodd" d="m16.5 3.5.4-.7c.3.7.4 1.5.4 2.3 0 .2-.2.1-.2 0 0-.6-.3-1-.6-1.6Z" clip-rule="evenodd"/><path fill="#3F4B5B" fill-rule="evenodd" d="M15.4 8.3c1.2-2.2.3-6-1.5-7.3-1 3.5-2.3 4.5-3.8 6-.2.1 0 .5.2.5 2.4-.3 4-.1 5.1.8Z" clip-rule="evenodd"/><path fill="#556981" fill-rule="evenodd" d="m13.9 2.9.3-.8c.7 1 1.1 2.3 1.2 3.5 0 .1 0 .3 0 0-.3-.9-.8-1.8-1.5-2.7Z" clip-rule="evenodd"/></g></svg>
