<svg xmlns="http://www.w3.org/2000/svg" xmlns:xlink="http://www.w3.org/1999/xlink" fill="none" viewBox="0 0 594 151"><defs><path id="reuse-0" d="M0 0h171v87H0z" class="C"/></defs><style>.B{fill-opacity:.7}.C{fill:#fff}.D{fill:#b5c1d1}.E{fill:#9ea9b8}.F{opacity:.5}.G{fill-opacity:.4}.H{fill:#3c4b5d}.I{stroke:#c5ccdb}</style><g clip-path="url(#A)"><path d="M8 8h194v87H8V8Z" class="C G"/><path d="M47 21H25a3 3 0 0 0-3 3v11a3 3 0 0 0 3 3h22a3 3 0 0 0 3-3V24a3 3 0 0 0-3-3z" class="B E"/><path d="M40 34h-9c-.5 0-1-.5-1-1.1V26c0-.6.5-1.1 1-1.1h9c.5 0 1 .5 1 1.1v7c0 .6-.5 1.1-1 1.1V34zm-7.6-7.7c-.7 0-1.2.6-1.2 1.3s.5 1.3 1.2 1.3 1.2-.6 1.2-1.3-.5-1.3-1.2-1.3zm-1 6.2h8.2v-2.6l-1.9-2a.2.2 0 0 0-.2 0 .2.2 0 0 0-.1 0l-3 3.1-1.1-1.3a.2.2 0 0 0-.2-.2.2.2 0 0 0-.2.2l-1.5 1.7v1.1z" class="C F"/><g class="D B"><path d="M165.5 22h-107a1.5 1.5 0 1 0 0 3h107a1.5 1.5 0 1 0 0-3zm-21 6h-86a1.5 1.5 0 1 0 0 3h86a1.5 1.5 0 1 0 0-3z"/><use xlink:href="#C"/><path d="M101.5 40h-43a1.5 1.5 0 1 0 0 3h43a1.5 1.5 0 1 0 0-3z"/></g><path d="M47 61H25a3 3 0 0 0-3 3v11a3 3 0 0 0 3 3h22a3 3 0 0 0 3-3V64a3 3 0 0 0-3-3z" class="B E"/><path d="M40 74h-9c-.5 0-1-.5-1-1.1V66c0-.6.5-1.1 1-1.1h9c.5 0 1 .5 1 1.1v7c0 .6-.5 1.1-1 1.1V74zm-7.6-7.7c-.7 0-1.2.6-1.2 1.3s.5 1.3 1.2 1.3 1.2-.6 1.2-1.3-.5-1.3-1.2-1.3zm-1 6.2h8.2v-2.6l-1.9-2a.2.2 0 0 0-.2 0 .2.2 0 0 0-.1 0l-3 3.1-1.1-1.3a.2.2 0 0 0-.2-.2.2.2 0 0 0-.2.2l-1.5 1.7v1.1z" class="C F"/><path d="M165.5 62h-107a1.5 1.5 0 1 0 0 3h107a1.5 1.5 0 1 0 0-3zm-21 6h-86a1.5 1.5 0 1 0 0 3h86a1.5 1.5 0 1 0 0-3zm-43 6h-43a1.5 1.5 0 1 0 0 3h43a1.5 1.5 0 1 0 0-3zm0 6h-43a1.5 1.5 0 1 0 0 3h43a1.5 1.5 0 1 0 0-3z" class="D B"/></g><path d="M78.9 128c0 1.6-.5 2.8-1.4 3.7s-2.2 1.3-3.9 1.3H71v-10h3c1.6 0 2.8.4 3.7 1.3s1.3 2 1.3 3.6zm-1.3 0c0-1.4-.3-2.3-1-3s-1.6-1-2.9-1H72v8h1.5c1.3 0 2.4-.3 3-1s1.1-1.7 1.1-3zm6.5 5.1c-1.1 0-2-.3-2.6-1s-1-1.6-1-2.8c0-1.2.3-2.1.9-2.9s1.4-1 2.4-1 1.7.3 2.2.9c.6.6.8 1.4.8 2.4v.8h-5.1c0 .8.2 1.5.6 2s1 .6 1.8.6a6 6 0 0 0 2.4-.5v1a5.7 5.7 0 0 1-2.4.5zm-.3-6.8c-.6 0-1.1.2-1.5.6s-.5 1-.6 1.6h4c0-.7-.2-1.2-.6-1.6s-.7-.6-1.3-.6zm8.4 0h-2v6.7h-1v-6.6h-1.4v-.5l1.3-.4v-.4c0-1.9.8-2.8 2.4-2.8.4 0 .9 0 1.4.2l-.3 1-1.1-.3c-.4 0-.7.2-1 .5s-.3.7-.3 1.3v.5h2v.9zm6 6.7-.3-1-1.2.9a3 3 0 0 1-1.4.2c-.7 0-1.3-.2-1.7-.5s-.6-1-.6-1.7c0-1.5 1.2-2.3 3.6-2.3h1.3v-.6c0-.5-.2-1-.4-1.3s-.7-.4-1.2-.4a5 5 0 0 0-2.2.6l-.3-.9a5.4 5.4 0 0 1 1.2-.4c.5-.2.9-.2 1.3-.2 1 0 1.6.2 2 .6s.7 1 .7 1.9v5.1H98zm-2.6-.8c.7 0 1.2-.2 1.6-.6s.6-1 .6-1.6v-.7h-1.1c-.9.1-1.6.2-2 .5s-.6.6-.6 1.1c0 .5.2.8.4 1s.6.3 1 .3zm6.8-6.7v4.9c0 .6.1 1 .4 1.3s.7.5 1.3.5c.8 0 1.4-.2 1.7-.7s.6-1 .6-2v-4h1.1v7.5h-1l-.1-1c-.3.4-.6.6-1 .8-.4.2-1 .3-1.4.3-1 0-1.6-.2-2-.6-.5-.4-.8-1.1-.8-2v-5h1.2zm8.6 7.5h-1v-10.6h1V133zm4.9-.8h.6l.4-.1v.8l-.5.2h-.7c-1.4 0-2.2-.7-2.2-2.3v-4.4h-1v-.6l1-.4.5-1.6h.7v1.7h2.1v.9h-2.1v4.4c0 .5 0 .8.3 1s.5.4.9.4z" class="H" opacity=".8"/><rect width="186" height="150" x=".5" y=".5" class="I" rx="3.5"/><g clip-path="url(#B)"><path d="M201 8h194v87H201V8Z" class="C G"/><path d="M231 61h-13a3 3 0 0 0-3 3v11a3 3 0 0 0 3 3h13a3 3 0 0 0 3-3V64a3 3 0 0 0-3-3z" class="B E"/><use xlink:href="#D" class="C F"/><g class="D B"><use xlink:href="#E"/><use xlink:href="#F"/><use xlink:href="#G"/><path d="M258.5 80h-18a1.5 1.5 0 1 0 0 3h18a1.5 1.5 0 1 0 0-3z"/></g><path d="M319 61h-13a3 3 0 0 0-3 3v11a3 3 0 0 0 3 3h13a3 3 0 0 0 3-3V64a3 3 0 0 0-3-3z" class="B E"/><path d="M317 74h-9l-1-1v-7l1-1h9l1 1v7l-1 1zm-8-8-1 2 1 1 2-1-2-2zm-1 7h9v-3l-2-2h-1l-3 3-1-1-2 1v2z" class="C F"/><path d="M375.5 62h-47a1.5 1.5 0 1 0 0 3h47a1.5 1.5 0 1 0 0-3zm-10 6h-37a1.5 1.5 0 1 0 0 3h37a1.5 1.5 0 1 0 0-3zm-19 6h-18a1.5 1.5 0 1 0 0 3h18a1.5 1.5 0 1 0 0-3zm0 6h-18a1.5 1.5 0 1 0 0 3h18a1.5 1.5 0 1 0 0-3z" class="D B"/><path d="M231 21h-13a3 3 0 0 0-3 3v11a3 3 0 0 0 3 3h13a3 3 0 0 0 3-3V24a3 3 0 0 0-3-3z" class="B E"/><path d="M229 34h-9l-1-1v-7l1-1h9l1 1v7l-1 1zm-8-8-1 2 1 1 2-1-2-2zm-1 7h9v-3l-2-2h-1l-3 3-1-1-2 1v2z" class="C F"/><path d="M287.5 22h-47a1.5 1.5 0 1 0 0 3h47a1.5 1.5 0 1 0 0-3zm-10 6h-37a1.5 1.5 0 1 0 0 3h37a1.5 1.5 0 1 0 0-3zm-19 6h-18a1.5 1.5 0 1 0 0 3h18a1.5 1.5 0 1 0 0-3zm0 6h-18a1.5 1.5 0 1 0 0 3h18a1.5 1.5 0 1 0 0-3z" class="D B"/><path d="M319 21h-13a3 3 0 0 0-3 3v11a3 3 0 0 0 3 3h13a3 3 0 0 0 3-3V24a3 3 0 0 0-3-3z" class="B E"/><path d="M317 34h-9l-1-1v-7l1-1h9l1 1v7l-1 1zm-8-8-1 2 1 1 2-1-2-2zm-1 7h9v-3l-2-2h-1l-3 3-1-1-2 1v2z" class="C F"/><path d="M375.5 22h-47a1.5 1.5 0 1 0 0 3h47a1.5 1.5 0 1 0 0-3zm-10 6h-37a1.5 1.5 0 1 0 0 3h37a1.5 1.5 0 1 0 0-3zm-19 6h-18a1.5 1.5 0 1 0 0 3h18a1.5 1.5 0 1 0 0-3zm0 6h-18a1.5 1.5 0 1 0 0 3h18a1.5 1.5 0 1 0 0-3z" class="D B"/></g><path d="M257 133h-1.2v-9h-3.2v-1h7.5v1H257v9zm10.6 0-1.4-4.4-.5-1.8-.5 1.8-1.4 4.4h-1.3l-2-7.5h1.1l1.1 4.3.4 2 .3-1 .3-1 1.4-4.3h1.2l1.4 4.3.5 2 .2-.8 1.4-5.5h1.2l-2 7.5h-1.4zm11.2-3.8c0 1.3-.3 2.2-.9 3s-1.5 1-2.6 1c-.6 0-1.2-.2-1.7-.5s-1-.8-1.2-1.4-.5-1.3-.5-2c0-1.3.3-2.2 1-2.9s1.4-1 2.5-1c1 0 1.9.3 2.5 1s1 1.7 1 2.8zm-5.7 0c0 1 .2 1.7.6 2.2s1 .8 1.7.8 1.3-.3 1.7-.8.5-1.2.5-2.2c0-.9-.2-1.6-.5-2.1s-1-.8-1.7-.8c-.8 0-1.3.3-1.7.8s-.6 1.2-.6 2.1zm7 .6v-1h3.4v1h-3.3zm8.2 3.3c-1 0-2-.3-2.5-1s-.9-1.6-.9-2.8c0-1.3.3-2.2 1-2.9s1.4-1 2.5-1a5.2 5.2 0 0 1 1 0l1 .4-.4 1a5 5 0 0 0-.8-.3l-.8-.1c-1.6 0-2.3 1-2.3 2.9 0 1 .2 1.6.5 2.1s1 .7 1.7.7a5 5 0 0 0 2-.4v1a4 4 0 0 1-2 .4zm10.2-3.9c0 1.3-.3 2.2-1 3s-1.4 1-2.5 1c-.7 0-1.3-.2-1.8-.5s-1-.8-1.2-1.4-.4-1.3-.4-2c0-1.3.3-2.2.9-2.9s1.5-1 2.5-1 2 .3 2.5 1 1 1.7 1 2.8zm-5.7 0c0 1 .1 1.7.5 2.2s1 .8 1.7.8 1.3-.3 1.7-.8.6-1.2.6-2.2c0-.9-.2-1.6-.6-2.1s-1-.8-1.7-.8-1.3.3-1.7.8-.5 1.2-.5 2.1zm8.8 3.8h-1.1v-10.6h1.1V133zm3.5-7.5v4.9c0 .6.1 1 .4 1.3s.7.5 1.3.5c.8 0 1.3-.2 1.7-.7s.6-1 .6-2v-4h1v7.5h-.8l-.2-1a2.3 2.3 0 0 1-1 .8l-1.5.3c-.9 0-1.5-.2-2-.6s-.7-1.1-.7-2v-5h1.2zm17 7.5v-4.9c0-.6 0-1-.3-1.3s-.7-.5-1.2-.5c-.7 0-1.2.2-1.6.6s-.5 1-.5 2v4.1h-1.1v-4.9c0-.6-.2-1-.4-1.3s-.7-.5-1.2-.5c-.7 0-1.2.2-1.6.7-.3.4-.5 1.1-.5 2v4h-1.1v-7.5h1l.1 1 1-.8c.4-.2.8-.3 1.3-.3 1.2 0 2 .4 2.3 1.2.3-.3.6-.7 1-.9s1-.3 1.5-.3c.8 0 1.4.2 1.9.6s.6 1.2.6 2.1v4.9h-1.1zm8.7 0v-4.8c0-.7-.2-1.1-.5-1.4s-.7-.5-1.3-.5c-.7 0-1.3.2-1.7.7s-.5 1-.5 2v4h-1.2v-7.5h1l.1 1 1-.8c.4-.2 1-.3 1.5-.3.9 0 1.6.2 2 .6s.7 1.2.7 2.1v4.9h-1.1zm8.3-2c0 .7-.3 1.2-.8 1.6s-1.3.5-2.2.5c-1 0-1.8-.1-2.3-.4v-1a5.6 5.6 0 0 0 1.1.3l1.2.2c.6 0 1 0 1.4-.3s.5-.5.5-.8c0-.3-.2-.6-.4-.8l-1.5-.7-1.5-.7c-.3-.2-.5-.4-.6-.7a1.8 1.8 0 0 1-.2-.9 1.7 1.7 0 0 1 .7-1.4c.5-.4 1.2-.5 2-.5a6 6 0 0 1 2.4.5l-.4.9c-.7-.3-1.4-.5-2-.5-.6 0-1 .1-1.3.3s-.4.4-.4.7c0 .2 0 .3.2.5l.5.4 1.3.5c.9.4 1.5.7 1.8 1s.5.8.5 1.3z" class="H" opacity=".8"/><rect width="186" height="150" x="203.5" y=".5" class="I" rx="3.5"/><g class="C"><path d="M414 8h172v87H414z" class="G"/><path fill-opacity=".6" d="M414 8h172v19H414z"/></g><g class="D B"><use xlink:href="#H"/><use xlink:href="#H" x="53"/><use xlink:href="#H" x="106"/><use xlink:href="#I"/><use xlink:href="#I" x="53"/><use xlink:href="#I" x="106"/><use xlink:href="#I" y="15"/><use xlink:href="#I" x="53" y="15"/><use xlink:href="#I" x="106" y="15"/><use xlink:href="#I" y="30"/><use xlink:href="#I" x="53" y="30"/><use xlink:href="#I" x="106" y="30"/><use xlink:href="#I" y="45"/><use xlink:href="#I" x="53" y="45"/><use xlink:href="#I" x="106" y="45"/></g><path d="M486.4 133h-1.1v-9H482v-1h7.5v1h-3.2v9zm9.2 0-.3-1-1.1.9c-.3.2-.9.2-1.4.2-.8 0-1.4-.2-1.8-.5s-.6-1-.6-1.7c0-1.5 1.2-2.3 3.6-2.4h1.3v-.5c0-.5-.1-1-.4-1.3s-.6-.4-1.2-.4a5 5 0 0 0-2.1.6l-.4-.9a5.4 5.4 0 0 1 1.2-.4 5.3 5.3 0 0 1 1.4-.2c.9 0 1.5.2 2 .6s.6 1 .6 1.9v5.1h-.8zm-2.6-.8c.7 0 1.3-.2 1.7-.6s.6-1 .6-1.6v-.7H494c-.9 0-1.5.2-2 .5s-.5.6-.5 1.1c0 .5.1.8.4 1s.6.3 1 .3zm9.2-6.8c1 0 1.8.3 2.3 1s.8 1.6.8 2.8-.2 2.2-.8 3-1.3 1-2.3 1c-.5 0-.9-.2-1.3-.3s-.7-.5-1-.9h-.1l-.2 1h-.9v-10.6h1.2v4.1c.5-.7 1.3-1.1 2.3-1.1zm-.1 1c-.8 0-1.4.2-1.7.6-.3.4-.5 1.2-.5 2.2s.2 1.9.5 2.3c.4.5 1 .7 1.7.7s1.2-.3 1.6-.8.5-1.2.5-2.2c0-1-.2-1.7-.5-2.1s-1-.8-1.6-.8zm6.4 6.6h-1.2v-10.6h1.2V133zm5.5.1c-1 0-2-.3-2.6-1a4 4 0 0 1-1-2.8c0-1.2.4-2.2 1-2.9s1.3-1 2.3-1c1 0 1.7.3 2.3.9.5.6.8 1.4.8 2.4v.8h-5.2c0 .8.3 1.5.7 2 .4.4 1 .6 1.8.6a6 6 0 0 0 2.4-.5v1a5.8 5.8 0 0 1-1.2.4l-1.3.1zm-.3-6.8c-.6 0-1 .2-1.4.6s-.6 1-.6 1.6h3.9c0-.7-.2-1.2-.5-1.6s-.8-.6-1.4-.6z" class="H" opacity=".8"/><rect width="187" height="150" x="406.5" y=".5" class="I" rx="3.5"/><defs><path id="C" d="M101.5 34h-43a1.5 1.5 0 1 0 0 3h43a1.5 1.5 0 1 0 0-3z"/><path id="D" d="M229 74h-9l-1-1v-7l1-1h9l1 1v7l-1 1zm-8-8-1 2 1 1 2-1-2-2zm-1 7h9v-3l-2-2h-1l-3 3-1-1-2 1v2z"/><path id="E" d="M287.5 62h-47a1.5 1.5 0 1 0 0 3h47a1.5 1.5 0 1 0 0-3z"/><path id="F" d="M277.5 68h-37a1.5 1.5 0 1 0 0 3h37a1.5 1.5 0 1 0 0-3z"/><path id="G" d="M258.5 74h-18a1.5 1.5 0 1 0 0 3h18a1.5 1.5 0 1 0 0-3z"/><path id="H" d="M465.8 15h-38.6c-.6 0-1.2 1.3-1.2 3s.6 3 1.2 3h38.6c.6 0 1.2-1.3 1.2-3s-.6-3-1.2-3z"/><path id="I" d="M465.8 37h-38.6c-.6 0-1.2.7-1.2 1.5s.6 1.5 1.2 1.5h38.6c.6 0 1.2-.7 1.2-1.5s-.6-1.5-1.2-1.5z"/><clipPath id="A"><use xlink:href="#reuse-0" class="C" transform="translate(8 8)"/></clipPath><clipPath id="B"><use xlink:href="#reuse-0" class="C" transform="translate(211 8)"/></clipPath></defs></svg>